<svg width="108" height="108" viewBox="0 0 108 108" fill="none" xmlns="http://www.w3.org/2000/svg">
<g filter="url(#filter0_d_2_37)">
<rect x="34" y="26" width="40" height="40" rx="20" fill="white"/>
</g>
<path d="M61.15 41.275C61.15 42.062 60.512 42.7 59.725 42.7C58.938 42.7 58.3 42.062 58.3 41.275C58.3 40.488 58.938 39.85 59.725 39.85C60.512 39.85 61.15 40.488 61.15 41.275Z" fill="url(#paint0_linear_2_37)"/>
<path fill-rule="evenodd" clip-rule="evenodd" d="M54.5 51.25C57.1234 51.25 59.25 49.1234 59.25 46.5C59.25 43.8766 57.1234 41.75 54.5 41.75C51.8766 41.75 49.75 43.8766 49.75 46.5C49.75 49.1234 51.8766 51.25 54.5 51.25ZM54.5 49.35C56.074 49.35 57.35 48.074 57.35 46.5C57.35 44.926 56.074 43.65 54.5 43.65C52.926 43.65 51.65 44.926 51.65 46.5C51.65 48.074 52.926 49.35 54.5 49.35Z" fill="url(#paint1_linear_2_37)"/>
<path fill-rule="evenodd" clip-rule="evenodd" d="M45 46.12C45 42.9277 45 41.3316 45.6213 40.1123C46.1677 39.0397 47.0397 38.1677 48.1123 37.6213C49.3316 37 50.9277 37 54.12 37H54.88C58.0723 37 59.6684 37 60.8877 37.6213C61.9603 38.1677 62.8323 39.0397 63.3787 40.1123C64 41.3316 64 42.9277 64 46.12V46.88C64 50.0723 64 51.6684 63.3787 52.8877C62.8323 53.9603 61.9603 54.8323 60.8877 55.3787C59.6684 56 58.0723 56 54.88 56H54.12C50.9277 56 49.3316 56 48.1123 55.3787C47.0397 54.8323 46.1677 53.9603 45.6213 52.8877C45 51.6684 45 50.0723 45 46.88V46.12ZM54.12 38.9H54.88C56.5075 38.9 57.6139 38.9015 58.469 38.9713C59.302 39.0394 59.728 39.1628 60.0252 39.3142C60.7402 39.6785 61.3215 40.2598 61.6858 40.9748C61.8372 41.272 61.9606 41.698 62.0287 42.531C62.0985 43.3861 62.1 44.4925 62.1 46.12V46.88C62.1 48.5075 62.0985 49.6139 62.0287 50.469C61.9606 51.302 61.8372 51.728 61.6858 52.0252C61.3215 52.7402 60.7402 53.3215 60.0252 53.6858C59.728 53.8372 59.302 53.9606 58.469 54.0287C57.6139 54.0985 56.5075 54.1 54.88 54.1H54.12C52.4925 54.1 51.3861 54.0985 50.531 54.0287C49.698 53.9606 49.272 53.8372 48.9748 53.6858C48.2598 53.3215 47.6785 52.7402 47.3142 52.0252C47.1628 51.728 47.0394 51.302 46.9713 50.469C46.9015 49.6139 46.9 48.5075 46.9 46.88V46.12C46.9 44.4925 46.9015 43.3861 46.9713 42.531C47.0394 41.698 47.1628 41.272 47.3142 40.9748C47.6785 40.2598 48.2598 39.6785 48.9748 39.3142C49.272 39.1628 49.698 39.0394 50.531 38.9713C51.3861 38.9015 52.4925 38.9 54.12 38.9Z" fill="url(#paint2_linear_2_37)"/>
<defs>
<filter id="filter0_d_2_37" x="0" y="0" width="108" height="108" filterUnits="userSpaceOnUse" color-interpolation-filters="sRGB">
<feFlood flood-opacity="0" result="BackgroundImageFix"/>
<feColorMatrix in="SourceAlpha" type="matrix" values="0 0 0 0 0 0 0 0 0 0 0 0 0 0 0 0 0 0 127 0" result="hardAlpha"/>
<feOffset dy="8"/>
<feGaussianBlur stdDeviation="17"/>
<feColorMatrix type="matrix" values="0 0 0 0 0 0 0 0 0 0 0 0 0 0 0 0 0 0 0.05 0"/>
<feBlend mode="normal" in2="BackgroundImageFix" result="effect1_dropShadow_2_37"/>
<feBlend mode="normal" in="SourceGraphic" in2="effect1_dropShadow_2_37" result="shape"/>
</filter>
<linearGradient id="paint0_linear_2_37" x1="54.5" y1="37" x2="54.5" y2="56" gradientUnits="userSpaceOnUse">
<stop offset="0.0625" stop-color="#D82D7E"/>
<stop offset="1" stop-color="#FBA756"/>
</linearGradient>
<linearGradient id="paint1_linear_2_37" x1="54.5" y1="37" x2="54.5" y2="56" gradientUnits="userSpaceOnUse">
<stop offset="0.0625" stop-color="#D82D7E"/>
<stop offset="1" stop-color="#FBA756"/>
</linearGradient>
<linearGradient id="paint2_linear_2_37" x1="54.5" y1="37" x2="54.5" y2="56" gradientUnits="userSpaceOnUse">
<stop offset="0.0625" stop-color="#D82D7E"/>
<stop offset="1" stop-color="#FBA756"/>
</linearGradient>
</defs>
</svg>
