<svg width="108" height="108" viewBox="0 0 108 108" fill="none" xmlns="http://www.w3.org/2000/svg">
<g filter="url(#filter0_d_2_34)">
<rect x="34" y="26" width="40" height="40" rx="20" fill="white"/>
</g>
<path d="M50.9638 53C48.7686 53 46.7223 52.4273 45 51.4391C46.4623 51.524 49.043 51.3207 50.6481 49.9473C48.2334 49.8479 47.1445 48.1866 47.0024 47.4767C47.2076 47.5477 48.1861 47.6329 48.7385 47.4341C45.9608 46.8093 45.5347 44.6227 45.6294 43.9554C46.1502 44.2819 47.034 44.3955 47.3812 44.3671C44.7929 42.7059 45.7241 40.2069 46.1817 39.6673C48.0392 41.9757 50.823 43.2722 54.2668 43.3443C54.2019 43.0888 54.1676 42.8229 54.1676 42.5497C54.1676 40.5893 55.9341 39 58.1132 39C59.2517 39 60.2776 39.4339 60.9978 40.1278C61.7586 39.9679 62.9036 39.5935 63.4634 39.2698C63.1813 40.1785 62.3028 40.9366 61.7715 41.2175C61.7759 41.2271 61.7672 41.2079 61.7715 41.2175C62.2382 41.1542 63.5011 40.9365 64 40.6329C63.7533 41.1434 62.822 41.9922 62.0577 42.4674C62.1999 48.0927 57.4019 53 50.9638 53Z" fill="#58A7DE"/>
<defs>
<filter id="filter0_d_2_34" x="0" y="0" width="108" height="108" filterUnits="userSpaceOnUse" color-interpolation-filters="sRGB">
<feFlood flood-opacity="0" result="BackgroundImageFix"/>
<feColorMatrix in="SourceAlpha" type="matrix" values="0 0 0 0 0 0 0 0 0 0 0 0 0 0 0 0 0 0 127 0" result="hardAlpha"/>
<feOffset dy="8"/>
<feGaussianBlur stdDeviation="17"/>
<feColorMatrix type="matrix" values="0 0 0 0 0 0 0 0 0 0 0 0 0 0 0 0 0 0 0.05 0"/>
<feBlend mode="normal" in2="BackgroundImageFix" result="effect1_dropShadow_2_34"/>
<feBlend mode="normal" in="SourceGraphic" in2="effect1_dropShadow_2_34" result="shape"/>
</filter>
</defs>
</svg>
